<?xml version="1.0" encoding="utf-8"?>
<!-- Generator: Adobe Illustrator 18.0.0, SVG Export Plug-In . SVG Version: 6.00 Build 0)  -->
<!DOCTYPE svg PUBLIC "-//W3C//DTD SVG 1.1//EN" "http://www.w3.org/Graphics/SVG/1.1/DTD/svg11.dtd">
<svg version="1.1" id="Layer_1" xmlns="http://www.w3.org/2000/svg" xmlns:xlink="http://www.w3.org/1999/xlink" x="0px" y="0px"
	 viewBox="0 0 350 350" enable-background="new 0 0 350 350" xml:space="preserve">
<g>
	<g>
		<linearGradient id="SVGID_1_" gradientUnits="userSpaceOnUse" x1="71.7286" y1="313.1606" x2="71.7286" y2="249.77">
			<stop  offset="0" style="stop-color:#001948"/>
			<stop  offset="0.1683" style="stop-color:#002558"/>
			<stop  offset="0.47" style="stop-color:#00366F"/>
			<stop  offset="0.754" style="stop-color:#00407D"/>
			<stop  offset="1" style="stop-color:#004482"/>
		</linearGradient>
		<path fill="url(#SVGID_1_)" d="M95,280H74.4c-0.4,0-0.6,0.2-0.6,0.7v8.4c0,0.4,0.2,0.6,0.6,0.6h16.1v12.4c-4.8,0.7-8.8,1-13.1,1
			c-14.9,0-23.2-7.6-23.2-21.5c0-13.7,7.8-20.9,22.6-20.9c4.5,0,9.8,0.8,17.9,2.7l6.4,1.5c0.2,0,0.4,0,0.6-0.1
			c0.2-0.1,0.3-0.3,0.3-0.5l2-9.2c0.1-0.4-0.2-0.8-0.6-0.9l-5.9-1.4c-6.5-1.5-14.1-3-21.7-3c-10.8,0-19.9,2.7-26.3,7.8
			c-6.9,5.5-10.6,13.8-10.6,23.9c0,10.4,3.6,18.4,10.6,23.9c6.4,5,15.6,7.7,26.6,7.7c6.1,0,13.2-0.8,20.2-2.3c6-1.4,8.1-3.8,8.1-9.4
			v-13.8C104.4,283.1,100.7,280,95,280z"/>
		<linearGradient id="SVGID_2_" gradientUnits="userSpaceOnUse" x1="145.5315" y1="312.8475" x2="145.5315" y2="249.4428">
			<stop  offset="0" style="stop-color:#001948"/>
			<stop  offset="0.1683" style="stop-color:#002558"/>
			<stop  offset="0.47" style="stop-color:#00366F"/>
			<stop  offset="0.754" style="stop-color:#00407D"/>
			<stop  offset="1" style="stop-color:#004482"/>
		</linearGradient>
		<path fill="url(#SVGID_2_)" d="M156.4,255.2c-1.6-3.7-5.2-5.7-10.4-5.7c-5.5,0-9,1.9-10.6,5.8l-25.3,56.2
			c-0.1,0.2-0.1,0.7,0.1,0.9c0.1,0.2,0.4,0.5,0.7,0.5h13.7c0.3,0,0.6-0.3,0.7-0.6l5.1-11.8h30.1l5.1,11.8c0.1,0.3,0.4,0.6,0.7,0.6
			h13.9c0.3,0,0.5-0.3,0.7-0.5c0.1-0.2,0.2-0.6,0.1-0.8L156.4,255.2z M157,290.3h-23l11.7-27.3L157,290.3z"/>
		<linearGradient id="SVGID_3_" gradientUnits="userSpaceOnUse" x1="215.5144" y1="312.8475" x2="215.5144" y2="249.9072">
			<stop  offset="0" style="stop-color:#001948"/>
			<stop  offset="0.1683" style="stop-color:#002558"/>
			<stop  offset="0.47" style="stop-color:#00366F"/>
			<stop  offset="0.754" style="stop-color:#00407D"/>
			<stop  offset="1" style="stop-color:#004482"/>
		</linearGradient>
		<path fill="url(#SVGID_3_)" d="M219.4,249.9H197c-5.8,0-9.7,3-9.7,7.6v54.3c0,0.4,0.4,1,0.9,1h13.2c0.4,0,1-0.6,1-1v-22.1h15.9
			c15.5,0,25.4-7.7,25.4-19.9S234.2,249.9,219.4,249.9z M229.9,270c0,6.3-4.6,10-12.4,10h-15.1v-19.9h13.9
			C222.5,260.1,229.9,261.8,229.9,270z"/>
		<linearGradient id="SVGID_4_" gradientUnits="userSpaceOnUse" x1="275.7551" y1="312.8475" x2="275.7551" y2="249.4438">
			<stop  offset="0" style="stop-color:#001948"/>
			<stop  offset="0.1683" style="stop-color:#002558"/>
			<stop  offset="0.47" style="stop-color:#00366F"/>
			<stop  offset="0.754" style="stop-color:#00407D"/>
			<stop  offset="1" style="stop-color:#004482"/>
		</linearGradient>
		<path fill="url(#SVGID_4_)" d="M311.1,311.5l-24.5-56.3c-1.6-3.7-5.2-5.7-10.4-5.7c-5.5,0-9,1.9-10.6,5.8l-25.3,56.2
			c-0.1,0.2-0.1,0.7,0.1,0.9c0.1,0.2,0.4,0.5,0.7,0.5h13.7c0.3,0,0.6-0.3,0.7-0.6l5.1-11.8h30.1l5.1,11.8c0.1,0.3,0.4,0.6,0.7,0.6
			h13.9c0.3,0,0.5-0.3,0.7-0.5C311.2,312.1,311.2,311.7,311.1,311.5z M287.2,290.3h-23l11.7-27.3L287.2,290.3z"/>
	</g>
	<radialGradient id="SVGID_5_" cx="174.3995" cy="147.7464" r="159.5801" gradientUnits="userSpaceOnUse">
		<stop  offset="0" style="stop-color:#004482"/>
		<stop  offset="0.246" style="stop-color:#00407D"/>
		<stop  offset="0.53" style="stop-color:#00366F"/>
		<stop  offset="0.8317" style="stop-color:#002558"/>
		<stop  offset="1" style="stop-color:#001948"/>
	</radialGradient>
	<path fill="url(#SVGID_5_)" d="M92.4,136.4H41.3c-1.4,0-2.5,1.3-2.5,2.7v93.7c0,1.4,1.1,2.7,2.5,2.7h51.1c1.4,0,2.4-1.3,2.4-2.7
		v-96.3H92.4z"/>
	<radialGradient id="SVGID_6_" cx="174.3995" cy="147.7464" r="159.5801" gradientUnits="userSpaceOnUse">
		<stop  offset="0" style="stop-color:#004482"/>
		<stop  offset="0.246" style="stop-color:#00407D"/>
		<stop  offset="0.53" style="stop-color:#00366F"/>
		<stop  offset="0.8317" style="stop-color:#002558"/>
		<stop  offset="1" style="stop-color:#001948"/>
	</radialGradient>
	<path fill="url(#SVGID_6_)" d="M164.6,136.4h-51.1h-2.6v96.3c0,1.4,1.2,2.7,2.6,2.7h51.1c1.4,0,2.8-1.3,2.8-2.7v-96.3H164.6z"/>
	<radialGradient id="SVGID_7_" cx="174.3995" cy="147.7464" r="159.5801" gradientUnits="userSpaceOnUse">
		<stop  offset="0" style="stop-color:#004482"/>
		<stop  offset="0.246" style="stop-color:#00407D"/>
		<stop  offset="0.53" style="stop-color:#00366F"/>
		<stop  offset="0.8317" style="stop-color:#002558"/>
		<stop  offset="1" style="stop-color:#001948"/>
	</radialGradient>
	<path fill="url(#SVGID_7_)" d="M236.3,136.4h-51.1h-2.8v96.3c0,1.4,1.4,2.7,2.8,2.7h51.1c1.4,0,2.6-1.3,2.6-2.7v-96.3H236.3z"/>
	<radialGradient id="SVGID_8_" cx="174.3995" cy="147.7464" r="159.5801" gradientUnits="userSpaceOnUse">
		<stop  offset="0" style="stop-color:#004482"/>
		<stop  offset="0.246" style="stop-color:#00407D"/>
		<stop  offset="0.53" style="stop-color:#00366F"/>
		<stop  offset="0.8317" style="stop-color:#002558"/>
		<stop  offset="1" style="stop-color:#001948"/>
	</radialGradient>
	<path fill="url(#SVGID_8_)" d="M308.5,136.4h-51.1h-2.4v96.3c0,1.4,1,2.7,2.4,2.7h51.1c1.4,0,2.5-1.3,2.5-2.7v-93.7
		C311,137.7,309.9,136.4,308.5,136.4z"/>
	<g>
		<path fill="#666666" d="M43.8,332.3v5h10.3v3H43.8v7.6h-4.4v-18.5h15.2v3H43.8z"/>
		<path fill="#666666" d="M72.7,329.2c4.2,0,6.9,0.6,8.1,1.7c1.2,1.1,1.8,3.6,1.8,7.5c0,4.2-0.6,6.9-1.8,8c-1.2,1.1-4.1,1.7-8.7,1.7
			c-4.2,0-6.9-0.5-8.1-1.6c-1.2-1.1-1.8-3.5-1.8-7.2c0-4.4,0.6-7.2,1.8-8.3C65.1,329.7,68,329.2,72.7,329.2z M72.4,332.2
			c-2.9,0-4.6,0.3-5.1,0.9c-0.5,0.6-0.7,2.7-0.7,6.3c0,2.7,0.3,4.3,0.9,4.8c0.6,0.5,2.3,0.8,5.1,0.8c2.7,0,4.3-0.3,4.9-0.9
			c0.5-0.6,0.8-2.5,0.8-5.6c0-3.1-0.3-4.9-0.8-5.5C76.8,332.5,75.2,332.2,72.4,332.2z"/>
		<path fill="#666666" d="M100.9,329.2c4.2,0,6.9,0.6,8.1,1.7c1.2,1.1,1.8,3.6,1.8,7.5c0,4.2-0.6,6.9-1.8,8
			c-1.2,1.1-4.1,1.7-8.7,1.7c-4.2,0-6.9-0.5-8.1-1.6c-1.2-1.1-1.8-3.5-1.8-7.2c0-4.4,0.6-7.2,1.8-8.3
			C93.2,329.7,96.2,329.2,100.9,329.2z M100.5,332.2c-2.9,0-4.6,0.3-5.1,0.9c-0.5,0.6-0.7,2.7-0.7,6.3c0,2.7,0.3,4.3,0.9,4.8
			c0.6,0.5,2.3,0.8,5.1,0.8c2.7,0,4.3-0.3,4.9-0.9c0.5-0.6,0.8-2.5,0.8-5.6c0-3.1-0.3-4.9-0.8-5.5
			C105,332.5,103.3,332.2,100.5,332.2z"/>
		<path fill="#666666" d="M119.5,347.8v-18.5h11.3c3.2,0,5.4,0.6,6.7,1.7s1.9,3.1,1.9,5.9c0,4.6-0.5,7.6-1.5,8.9c-1,1.3-3.4,2-7,2
			H119.5z M123.9,344.9h6.2c2.1,0,3.4-0.4,4-1.2c0.6-0.8,0.9-2.5,0.9-5.1c0-2.7-0.3-4.5-0.8-5.2c-0.5-0.7-1.8-1.1-3.9-1.1h-6.5
			V344.9z"/>
		<path fill="#666666" d="M165.5,334.7h-4.3c0-0.2,0-0.3,0-0.4c-0.1-1-0.4-1.7-0.9-2c-0.5-0.3-1.6-0.4-3.3-0.4c-2.1,0-3.4,0.2-4,0.5
			c-0.6,0.3-0.9,1-0.9,1.9c0,1.2,0.3,1.9,0.8,2.1c0.5,0.2,2.2,0.4,5.1,0.5c3.4,0.2,5.6,0.5,6.6,1.2c1,0.6,1.5,1.9,1.5,3.9
			c0,2.5-0.6,4-1.8,4.8c-1.2,0.7-3.8,1.1-7.8,1.1c-3.6,0-6-0.4-7.2-1.1c-1.2-0.7-1.8-2.1-1.8-4.3l0-0.7h4.2l0,0.4
			c0,1.3,0.3,2.1,0.8,2.4c0.6,0.3,2.1,0.4,4.6,0.4c1.9,0,3.2-0.2,3.7-0.5c0.5-0.3,0.8-1.1,0.8-2.3c0-0.9-0.2-1.5-0.6-1.8
			c-0.4-0.3-1.3-0.5-2.6-0.5l-2.4-0.1c-3.6-0.2-5.9-0.6-7-1.2c-1-0.6-1.5-2-1.5-4.1c0-2.2,0.6-3.6,1.8-4.3c1.2-0.7,3.6-1.1,7.3-1.1
			c3.5,0,5.8,0.3,7,1c1.2,0.7,1.8,1.9,1.8,3.9V334.7z"/>
		<path fill="#666666" d="M178.8,332.3v4.8h10.8v2.6h-10.8v5.2h11.4v3h-15.8v-18.5h15.7v3H178.8z"/>
		<path fill="#666666" d="M199.4,347.8v-18.5h11.3c2.8,0,4.8,0.4,5.8,1.2c1.1,0.8,1.6,2.2,1.6,4.3c0,1.9-0.3,3.2-0.8,3.8
			c-0.5,0.7-1.6,1.2-3.3,1.4v0.1c2.5,0.1,3.8,1.3,3.8,3.6v4.1h-4.4v-3.4c0-1.9-1.2-2.9-3.5-2.9h-6.3v6.2H199.4z M203.7,338.6h6.3
			c1.5,0,2.5-0.2,3-0.6c0.5-0.4,0.7-1.3,0.7-2.6c0-1.3-0.2-2.2-0.6-2.6c-0.4-0.4-1.3-0.6-2.8-0.6h-6.6V338.6z"/>
		<path fill="#666666" d="M242.1,329.3h4.6l-7.4,18.5h-6.7l-7.3-18.5h4.5l4.3,10.5c0.4,1,1,2.7,1.8,5h0.1l0.4-1.3
			c0.5-1.6,1-2.8,1.4-3.8L242.1,329.3z"/>
		<path fill="#666666" d="M258.8,329.3v18.5h-4.4v-18.5H258.8z"/>
		<path fill="#666666" d="M282.9,341.2h4.4v0.6c0,2.6-0.6,4.2-1.7,5c-1.2,0.8-3.7,1.1-7.7,1.1c-4.5,0-7.3-0.6-8.4-1.8
			c-1-1.2-1.6-4.4-1.6-9.6c0-3.1,0.7-5.1,2.1-6c1.4-1,4.4-1.4,8.9-1.4c3.3,0,5.5,0.4,6.6,1.2c1.1,0.8,1.6,2.4,1.6,4.7l0,0.4h-4.4
			V335c0-1.2-0.3-2-0.8-2.3c-0.6-0.3-1.9-0.5-3.9-0.5c-2.7,0-4.3,0.3-4.9,0.8c-0.5,0.5-0.8,2.1-0.8,4.7c0,3.5,0.2,5.6,0.7,6.3
			c0.5,0.7,2.1,1,4.7,1c2.2,0,3.6-0.2,4.2-0.5c0.6-0.4,1-1.2,1-2.4L282.9,341.2z"/>
		<path fill="#666666" d="M299.7,332.3v4.8h10.8v2.6h-10.8v5.2h11.4v3h-15.8v-18.5h15.7v3H299.7z"/>
	</g>
	<radialGradient id="SVGID_9_" cx="174.4035" cy="147.7158" r="159.4524" gradientUnits="userSpaceOnUse">
		<stop  offset="0" style="stop-color:#004482"/>
		<stop  offset="0.246" style="stop-color:#00407D"/>
		<stop  offset="0.53" style="stop-color:#00366F"/>
		<stop  offset="0.8317" style="stop-color:#002558"/>
		<stop  offset="1" style="stop-color:#001948"/>
	</radialGradient>
	<path fill="url(#SVGID_9_)" d="M194.6,97.9c0-70.1-17.7-88.3-26.9-94.5c-8.4-5.7-8.4,7.5-8.4,7.5v124.3v1.2h33.1
		C193.7,125.3,194.6,112.6,194.6,97.9z"/>
	<radialGradient id="SVGID_10_" cx="174.3995" cy="147.7464" r="159.5801" gradientUnits="userSpaceOnUse">
		<stop  offset="0" style="stop-color:#004482"/>
		<stop  offset="0.246" style="stop-color:#00407D"/>
		<stop  offset="0.53" style="stop-color:#00366F"/>
		<stop  offset="0.8317" style="stop-color:#002558"/>
		<stop  offset="1" style="stop-color:#001948"/>
	</radialGradient>
	<path fill="url(#SVGID_10_)" d="M147,90.8c-0.1-60-33.7-66.8-44.1-66.8c-10.6,0-43.8,6.8-43.9,66.8c0,21,6.2,35.2,13.5,45.6h61.1
		C140.9,126.1,147.1,111.8,147,90.8z"/>
	<radialGradient id="SVGID_11_" cx="247.3246" cy="117.0318" r="2.384166e-02" gradientUnits="userSpaceOnUse">
		<stop  offset="0" style="stop-color:#004086"/>
		<stop  offset="0.3322" style="stop-color:#003D81"/>
		<stop  offset="0.7149" style="stop-color:#003473"/>
		<stop  offset="1" style="stop-color:#002A64"/>
	</radialGradient>
	<path fill="url(#SVGID_11_)" d="M247.4,117C247.3,117,247.3,117,247.4,117C247.3,117,247.3,117,247.4,117L247.4,117z"/>
	<radialGradient id="SVGID_12_" cx="174.3995" cy="147.7464" r="159.5801" gradientUnits="userSpaceOnUse">
		<stop  offset="0" style="stop-color:#004482"/>
		<stop  offset="0.246" style="stop-color:#00407D"/>
		<stop  offset="0.53" style="stop-color:#00366F"/>
		<stop  offset="0.8317" style="stop-color:#002558"/>
		<stop  offset="1" style="stop-color:#001948"/>
	</radialGradient>
	<path fill="url(#SVGID_12_)" d="M279.1,107c-1.8-29.9-4.2-77.2-4.2-77.2s-0.3-4.6-1.9-4.6c-1.6,0-1.7,4.7-1.7,4.7
		c0,4.9-2.2,82-2.2,82s0.4,5.2-3.6,5.2c-3.9,0-4-5.2-4-5.2l-0.3-4.9c-1.8-29.9-4.2-77.2-4.2-77.2s-0.3-4.6-1.9-4.6
		c-1.6,0-1.7,4.7-1.7,4.7c0,4.9-2.2,82-2.2,82s-0.2,5.1-4,5.2c0,0,0,0,0,0h-0.1c0,0,0,0,0,0c-3.9,0-4-5.2-4-5.2s-2.2-77-2.2-82
		c0,0-0.1-4.7-1.7-4.7c-1.5,0-1.9,4.6-1.9,4.6s-2.4,47.3-4.2,77.2l-0.3,4.9c0,0-0.1,5.2-4,5.2c-3.9,0-3.6-5.2-3.6-5.2
		s-2.2-77.1-2.2-82c0,0-0.1-4.7-1.7-4.7c-1.5,0-1.9,4.6-1.9,4.6s-2.4,47.3-4.2,77.2c-0.8,13.5,0.7,22.5,3.6,29.4h56.2
		C278.3,129.5,279.9,120.5,279.1,107z"/>
</g>
</svg>
